<mxfile host="65bd71144e">
    <diagram id="RkylR-BtRV6f5jZkGm7x" name="Page-1">
        <mxGraphModel dx="1137" dy="1073" grid="1" gridSize="10" guides="1" tooltips="1" connect="1" arrows="1" fold="1" page="0" pageScale="1" pageWidth="850" pageHeight="1100" math="0" shadow="0">
            <root>
                <mxCell id="0"/>
                <mxCell id="1" parent="0"/>
                <mxCell id="6" style="edgeStyle=none;html=1;entryX=0.995;entryY=0.475;entryDx=0;entryDy=0;entryPerimeter=0;endArrow=none;endFill=0;dashed=1;dashPattern=1 2;strokeWidth=2;" edge="1" parent="1" source="4" target="5">
                    <mxGeometry relative="1" as="geometry"/>
                </mxCell>
                <mxCell id="4" value="LOGOUT_GROUP" style="text;html=1;align=center;verticalAlign=middle;resizable=0;points=[];autosize=1;strokeColor=none;fillColor=none;" vertex="1" parent="1">
                    <mxGeometry x="390" y="56.25" width="120" height="30" as="geometry"/>
                </mxCell>
                <mxCell id="5" value="214017" style="points=[[0,0.5,0],[0.24,0,0],[0.5,0.28,0],[0.995,0.475,0],[0.5,0.72,0],[0.24,1,0]];verticalLabelPosition=bottom;sketch=0;html=1;verticalAlign=top;aspect=fixed;align=center;pointerEvents=1;shape=mxgraph.cisco19.key;fillColor=#FF3333;strokeColor=none;" vertex="1" parent="1">
                    <mxGeometry x="200" y="60" width="50" height="22.5" as="geometry"/>
                </mxCell>
            </root>
        </mxGraphModel>
    </diagram>
</mxfile>